<svg width="35" height="48" viewBox="0 0 35 48" fill="none" xmlns="http://www.w3.org/2000/svg">
<path d="M34.9062 2.13536V47.0337H25.0729L28.0281 42.2313H26.9381C26.0754 43.697 24.7639 45.0187 23.0182 46.2142C21.2725 47.4008 18.766 48 15.4931 48C12.7186 48 10.1568 47.3156 7.7932 45.9381C5.42959 44.5693 3.53229 42.5838 2.10131 40.002C1.03462 38.0575 0.36139 35.8194 0.102005 33.2699H5.56365C6.48753 33.2699 7.34146 33.8602 7.60376 34.7502C8.08464 36.4068 8.88319 37.7844 10.0082 38.9005C11.9842 40.8773 14.4731 41.8553 17.4691 41.8553C20.4652 41.8553 23.0182 40.8743 24.9942 38.9005C26.4106 37.4906 27.3112 35.6578 27.7134 33.3873V33.3785C27.7775 33.0525 27.8154 32.7265 27.8562 32.3828C27.9261 31.7689 27.9582 31.1228 27.9582 30.456V29.8421C27.9582 29.1636 27.9261 28.5116 27.8562 27.8977C27.8154 27.554 27.7687 27.228 27.7134 26.9108C27.317 24.655 26.4252 22.831 25.0262 21.4211C24.5745 20.96 24.0936 20.5605 23.5719 20.211C23.161 19.932 22.7355 19.6852 22.2838 19.4708C21.6659 19.183 21.0189 18.9597 20.3398 18.7923C19.7773 18.6572 19.1945 18.5691 18.5853 18.5221C18.221 18.4898 17.8509 18.4751 17.472 18.4751C14.476 18.4751 11.9871 19.4561 10.0111 21.4241C8.69084 22.7399 7.8136 24.42 7.37935 26.4673C7.16659 27.4395 6.2806 28.115 5.29261 28.115H0C0.0233155 27.7567 0.0553742 27.3984 0.087433 27.0488C0.119492 26.7316 0.157379 26.4203 0.206925 26.1089V26.1001C0.530427 23.9501 1.14829 22.0144 2.07216 20.2991C3.47983 17.685 5.36839 15.6936 7.72325 14.3248C9.85079 13.0912 12.159 12.4039 14.6567 12.2864C14.9336 12.2717 15.2104 12.2629 15.4931 12.2629H15.5893L15.5572 12.2218L11.5033 5.76869C10.8942 4.80529 11.3051 3.45123 12.4126 2.74924L15.7175 0.793049L26.0171 17.8289L27.7075 17.8436L20.981 6.69979L20.436 3.36899C20.2291 2.10305 21.0597 0.9076 22.2925 0.707869L25.9793 0L28.9199 17.8759L30.2751 17.8906L27.9756 3.88594C28.2525 2.87554 29.1706 2.13242 30.2606 2.13242H34.9091L34.9062 2.13536Z" fill="#FCD422"/>
</svg>
